<svg xmlns="http://www.w3.org/2000/svg" viewBox="0 0 243 78.36"><defs><style>.cls-1{font-size:25px;stroke-width:0.5px;}.cls-1,.cls-2{fill:#231815;stroke:#231815;stroke-miterlimit:10;font-family:RIDIBatang-KSCpc-EUC-H, RIDIBatang;}.cls-2{font-size:12px;stroke-width:0.25px;letter-spacing:0.02em;}.cls-3{letter-spacing:0.02em;}.cls-4{letter-spacing:0.01em;}.cls-5{fill:#c78912;}.cls-5,.cls-6,.cls-7,.cls-8,.cls-9{stroke:#040000;}.cls-10,.cls-5,.cls-6,.cls-7,.cls-8,.cls-9{stroke-linecap:round;stroke-linejoin:round;}.cls-5,.cls-9{stroke-width:3px;}.cls-6{fill:#14923d;}.cls-6,.cls-7,.cls-8{stroke-width:2px;}.cls-7{fill:none;}.cls-8{fill:#74bb2a;}.cls-10,.cls-9{fill:#f8e3b5;}.cls-10{stroke:#c19246;}</style></defs><title>Asset 2</title><g id="Layer_2" data-name="Layer 2"><g id="레이어_1" data-name="레이어 1"><text class="cls-1" transform="translate(131.72 20.25)">그루터기<tspan x="-16.02" y="28">작은 도서관</tspan></text><text class="cls-2" transform="translate(113.56 70.09) scale(1 0.9)">A Stump S<tspan class="cls-3" x="59.59" y="0">m</tspan><tspan class="cls-4" x="69.8" y="0">a</tspan><tspan x="76" y="0">ll Library</tspan></text><path class="cls-5" d="M13.91,31s3.17,17-6.33,32.17c0,0-2.67,4.66,6.83,5.33,0,0,8.84,1.17,15.5-2.83,0,0-1.08,6.41,35.92,11.16,0,0,5,1,10.75-10.25,0,0,.38-.87,4.38,0,0,0,8.62,1.25,13.25,0,0,0,3.25-1.37,1.25-4.75,0,0-5.21-9-6.71-33.16Z"/><path class="cls-6" d="M13.83,27.12s.42-5-7.67-7c0,0-4.18-1.25-5.16-3.07C1,17.08,2.25,30.05,13.83,27.12Z"/><path class="cls-7" d="M88.21,28.7s2.09-9.29,6.67-12.82"/><path class="cls-8" d="M94.34,16.3S84.94,9.56,91.78,1c0,0-.1,1.9,2.94,5.32C94.72,6.34,98.52,10.61,94.34,16.3Z"/><path class="cls-8" d="M94.34,16.3s4.46-5.41,9.39-3.7a13.62,13.62,0,0,0,7-.19S106.77,23.61,94.34,16.3Z"/><path class="cls-7" d="M29.91,65.67a23.79,23.79,0,0,0,4.25-12.59"/><path class="cls-7" d="M18.75,68.58a15.76,15.76,0,0,0,5.75-8.83"/><path class="cls-7" d="M26,36.67S26.33,43,23.58,47.5"/><path class="cls-7" d="M35.25,39.42a14,14,0,0,1-.75,5.16"/><path class="cls-7" d="M41.41,72.25s2.42-1.75,2.17-10.58"/><path class="cls-7" d="M72.42,73.08A24.72,24.72,0,0,1,66.17,63"/><path class="cls-7" d="M77,66.42a23.94,23.94,0,0,1-6.83-13.84"/><path class="cls-7" d="M67.17,37.5a13.09,13.09,0,0,0,1.91,6.17"/><path class="cls-7" d="M78.42,33.42a30.13,30.13,0,0,0,4.5,11.75"/><path class="cls-9" d="M16.08,34.21s-5.87-5.38.25-9.25A23.06,23.06,0,0,1,26,22s1.4-.06,5.37-1.75a32.38,32.38,0,0,1,14.75-1.63s3.5,0,13.88-.25c0,0,6.75-.87,10.75,1.38a36.54,36.54,0,0,0,9.12,2.37s13,1.75,7.5,9.13c0,0-.75,1.25-8,1.87,0,0-1.62-.25-7.12,3.38a11.5,11.5,0,0,1-4.38,1,12.78,12.78,0,0,0-3.75,1.12S60,41,51.58,39.08a12.44,12.44,0,0,0-5.12.5s-9,1.75-15.75-1.87a17.27,17.27,0,0,0-7.25-1S18.71,36.71,16.08,34.21Z"/><path class="cls-10" d="M75.67,27.37c.06,2.78-11,5.28-24.59,5.59S26.32,31.27,26.25,28.5s11-5.28,24.6-5.59S75.6,24.59,75.67,27.37Z"/><path class="cls-10" d="M57.43,27.46c0,1-5.27,1.9-11.81,2.05S33.76,29,33.74,28s5.26-1.89,11.8-2S57.41,26.48,57.43,27.46Z"/></g></g></svg>