<svg xmlns="http://www.w3.org/2000/svg" viewBox="0 0 111.76 78.34"><defs><style>.cls-1{fill:#c78912;}.cls-1,.cls-2,.cls-3,.cls-4,.cls-5{stroke:#040000;}.cls-1,.cls-2,.cls-3,.cls-4,.cls-5,.cls-6{stroke-linecap:round;stroke-linejoin:round;}.cls-1,.cls-5{stroke-width:3px;}.cls-2{fill:#14923d;}.cls-2,.cls-3,.cls-4{stroke-width:2px;}.cls-3{fill:none;}.cls-4{fill:#74bb2a;}.cls-5,.cls-6{fill:#f8e3b5;}.cls-6{stroke:#c19246;}</style></defs><title>Asset 6</title><g id="Layer_2" data-name="Layer 2"><g id="레이어_1" data-name="레이어 1"><path class="cls-1" d="M13.91,31s3.17,17-6.33,32.17c0,0-2.67,4.66,6.83,5.33,0,0,8.84,1.17,15.5-2.83,0,0-1.08,6.41,35.92,11.16,0,0,5,1,10.75-10.25,0,0,.38-.87,4.38,0,0,0,8.62,1.25,13.25,0,0,0,3.25-1.37,1.25-4.75,0,0-5.21-9-6.71-33.16Z"/><path class="cls-2" d="M13.83,27.1s.42-5-7.67-7c0,0-4.18-1.25-5.16-3.07C1,17.06,2.25,30,13.83,27.1Z"/><path class="cls-3" d="M88.21,28.68s2.09-9.29,6.67-12.82"/><path class="cls-4" d="M94.34,16.28S84.94,9.54,91.78,1c0,0-.1,1.9,2.94,5.31C94.72,6.31,98.52,10.59,94.34,16.28Z"/><path class="cls-4" d="M94.34,16.28s4.46-5.41,9.39-3.7a13.62,13.62,0,0,0,7-.19S106.77,23.59,94.34,16.28Z"/><path class="cls-3" d="M29.91,65.65a23.79,23.79,0,0,0,4.25-12.59"/><path class="cls-3" d="M18.75,68.56a15.76,15.76,0,0,0,5.75-8.83"/><path class="cls-3" d="M26,36.65s.33,6.33-2.42,10.83"/><path class="cls-3" d="M35.25,39.4a14,14,0,0,1-.75,5.16"/><path class="cls-3" d="M41.41,72.23s2.42-1.75,2.17-10.58"/><path class="cls-3" d="M72.42,73.06A24.72,24.72,0,0,1,66.17,63"/><path class="cls-3" d="M77,66.4a23.94,23.94,0,0,1-6.83-13.84"/><path class="cls-3" d="M67.17,37.48a13.09,13.09,0,0,0,1.91,6.17"/><path class="cls-3" d="M78.42,33.4a30.13,30.13,0,0,0,4.5,11.75"/><path class="cls-5" d="M16.08,34.19s-5.87-5.38.25-9.25a23.06,23.06,0,0,1,9.63-3s1.4-.06,5.37-1.75a32.38,32.38,0,0,1,14.75-1.63s3.5,0,13.88-.25c0,0,6.75-.87,10.75,1.38a36.54,36.54,0,0,0,9.12,2.37s13,1.75,7.5,9.13c0,0-.75,1.25-8,1.87,0,0-1.62-.25-7.12,3.38a11.5,11.5,0,0,1-4.38,1,12.78,12.78,0,0,0-3.75,1.12s-4.12,2.38-12.5.5a12.44,12.44,0,0,0-5.12.5s-9,1.75-15.75-1.87a17.27,17.27,0,0,0-7.25-1S18.71,36.69,16.08,34.19Z"/><path class="cls-6" d="M75.67,27.35c.06,2.78-11,5.28-24.59,5.59s-24.76-1.69-24.83-4.46,11-5.28,24.6-5.6S75.6,24.57,75.67,27.35Z"/><path class="cls-6" d="M57.43,27.44c0,1-5.27,1.89-11.81,2S33.76,29,33.74,28s5.26-1.9,11.8-2.05S57.41,26.46,57.43,27.44Z"/></g></g></svg>