<?xml version="1.0" encoding="utf-8"?>
<!-- Generator: Adobe Illustrator 22.0.2, SVG Export Plug-In . SVG Version: 6.00 Build 0)  -->
<svg version="1.1" id="Layer_1" xmlns="http://www.w3.org/2000/svg" xmlns:xlink="http://www.w3.org/1999/xlink" x="0px" y="0px"
	 viewBox="0 0 25 25" style="enable-background:new 0 0 25 25;" xml:space="preserve">
<style type="text/css">
	.st0{fill:#F5D01F;}
	.st1{font-family:'Castellar';}
	.st2{font-size:25px;}
	.st3{fill:none;}
	.st4{fill:#FDF2CC;}
</style>
<text transform="matrix(1 0 0 1 7.6905 19.7336)" class="st0 st1 st2">1</text>
<g>
	<g>
		<g>
			<g>
				<g>
					<g>
						<path class="st3" d="M12.5,13.4l-0.1,11.1c3.6,0.1,7.3-1.4,9.9-4c2.6-2.5,4.2-6.2,4.2-9.8l-11.1-0.1c0,0.8-0.3,1.5-0.8,2
							C13.9,13.1,13.2,13.4,12.5,13.4z"/>
					</g>
					<path class="st4" d="M16.8,19.5c0.3-0.3,0.1,0.2,0.3,0.3c0.2,0,0.4-0.2,0.4-0.4c0.1-0.2,0.1-0.4,0.1-0.4c0-0.1,0-0.2,0-0.4
						c0-0.2,0.1-0.3,0.1-0.3c0.1-0.1,0.2,0,0.2,0.1c0.1,0.1,0,0.4,0,0.4c-0.1,0.2,0.2-0.1,0.2-0.1v0.1c0,0.1-0.1,0.2-0.2,0.3
						c0,0.1,0,0.2,0.1,0.2s0.2-0.1,0.2-0.2s0-0.2,0-0.3c0-0.1,0-0.1,0-0.1h0.3c0.2,0,0.1-0.5,0-0.7c-0.2-0.2-0.8,0-0.8-0.1l0.1-0.3
						c0,0,0.2-0.1,0.3-0.2c0.2-0.1,0.3-0.3,0.2-0.4c-0.1-0.1-0.2-0.1-0.4-0.1V17c0.1,0,0.2,0,0.3,0c0.1,0.1-0.5,0.4-0.5,0.4
						s0-0.2,0-0.5s-0.1-0.6-0.3-0.8c-0.4-0.4-0.9-0.3-1.2-0.1c0.3,0.3,0.3,0.5,0.4,0.7c0.1,0.1,0.3,0.2,0.4,0.1c0.3-0.2,0-0.5,0-0.5
						s0.5-0.2,0.5,0.2c0,0.2-0.1,0.6,0,0.9c0.1,0.2,0.2,0.3,0.4,0.3H18c0,0-0.1,0.4-0.2,0.4c0,0-0.1,0-0.1-0.1s-0.2-0.3-0.3-0.4
						c-0.1,0-0.2,0-0.4,0c-0.1,0-0.3,0-0.3,0c-0.1,0.1,0.2,0.2,0.2,0.2s-0.1,0.1-0.3,0.1c-0.2,0.1-0.3,0.3-0.3,0.4l0.4-0.1v0.2
						c0,0,0.4-0.2,0.5-0.2s0.2,0,0.3,0.1c0,0.1-0.1,0.2-0.2,0.3c-0.1,0.1-0.3,0.2-0.4,0.2c0,0-0.9,0.1-0.5,0.4s-0.3,0.2-0.3,0.4
						C16.2,19.8,16.5,19.8,16.8,19.5z M17.6,17.1c-0.2-0.7,0.1-0.7,0.1-0.7s0.3,0.6,0.2,1.1C17.9,17.5,17.6,17.3,17.6,17.1z"/>
					<path class="st4" d="M21.9,13.8c0-0.4,0.2,0.1,0.4,0s0.1-0.4,0-0.6s-0.2-0.4-0.2-0.4c-0.1-0.1-0.2-0.2-0.2-0.3
						c-0.1-0.1-0.2-0.2-0.1-0.3c0-0.1,0.1-0.2,0.2-0.1c0.1,0,0.3,0.3,0.3,0.3c0.1,0.2,0.1-0.2,0.1-0.2h0.1l0.1,0.3
						c0,0.1,0.1,0.1,0.2,0s0-0.2,0-0.3S22.7,12,22.6,12s-0.1-0.1,0-0.1c0-0.1,0.2-0.1,0.2-0.2c0.1-0.1-0.3-0.5-0.5-0.5
						c-0.3,0-0.6,0.5-0.6,0.5l-0.2-0.3c0,0,0.3-0.8,0-0.8c-0.1,0-0.3,0.1-0.3,0.2l0.1,0.1c0.1-0.1,0.1-0.2,0.2-0.2
						c0.2,0-0.1,0.6-0.1,0.6s-0.1-0.2-0.3-0.3c-0.2-0.2-0.5-0.3-0.8-0.3c-0.5,0-0.9,0.5-0.9,0.7s0.1,0.4,0.4,0.4
						c0.2,0,0.3-0.1,0.3-0.2c0.1-0.4-0.3-0.3-0.4-0.3c0,0,0.2-0.4,0.4-0.2c0.1,0.2,0.3,0.5,0.6,0.6c0.2,0.1,0.4,0.1,0.5,0
						c0,0,0,0,0.1,0l0.2,0.4h-0.1c-0.1-0.1-0.4-0.1-0.5,0c-0.1,0-0.2,0.1-0.3,0.2c-0.1,0.1-0.1,0.2-0.1,0.2c0,0.1,0.2,0,0.3,0
						c0,0,0,0.1-0.1,0.3s0,0.5,0.1,0.5s0.2-0.4,0.2-0.4l0.1,0.1c0,0,0.1-0.4,0.2-0.5s0.1-0.2,0.2-0.1c0.1,0,0.1,0.2,0.1,0.4
						c0,0.1-0.1,0.4-0.1,0.5c0,0-0.5,0.7,0,0.6s-0.1,0.4,0,0.5S21.9,14.3,21.9,13.8z M20.7,11.5c-0.6-0.4-0.4-0.5-0.4-0.6
						c0,0,0.6,0.2,0.9,0.6C21.2,11.6,20.9,11.7,20.7,11.5z"/>
					<path class="st4" d="M17.8,16c0.2,0.1,0.2-0.6,0.4-0.1c0.2,0.5,0.5-0.2,0.5-0.3s0.2-0.3,0.3-0.3c0.1-0.1,0.3-0.2,0.3-0.1
						c0.1,0,0.1,0.1,0.1,0.3c0,0.1-0.3,0.5-0.3,0.5s0.2,0,0.2,0.1l-0.2,0.4c0,0.1,0.4,0,0.5-0.2s0.2-0.3,0.2-0.3s0.1,0.2,0.2,0.2
						c0,0,0.2-0.5,0.1-0.7c-0.1-0.1-0.3-0.3-0.4-0.3l-0.1-0.1l0.4-0.2c0,0,0,0,0.1,0.1c0,0.2,0.2,0.3,0.4,0.4c0.3,0.1,0.7,0,0.9-0.2
						c0.3-0.1,0.2,0.5,0.2,0.5c0-0.1-0.3-0.3-0.6,0.1c-0.1,0.2-0.1,0.4,0,0.5c0.2,0.1,0.4,0.1,0.6-0.2c0.3-0.4,0.3-1.2-0.2-1.4
						c-0.3-0.1-0.6-0.1-0.9-0.1S20,14.7,20,14.7s0.1-0.6,0.2-0.5c0.1,0,0.1,0.1,0.1,0.2h0.1c0-0.2,0-0.3-0.2-0.3
						c-0.3-0.1-0.4,0.6-0.4,0.7l-0.3,0.1c0,0,0-0.1,0-0.3s-0.1-0.3-0.2-0.4c-0.2-0.1-0.6-0.1-0.6,0l0.1,0.2c0,0,0,0-0.1,0
						s-0.2,0-0.3,0c-0.1,0-0.1,0.1-0.1,0.1c0,0.1,0.1,0.1,0.2,0.1s0.2-0.1,0.3-0.1h0.1c0,0-0.2,0.2,0,0.2c0,0,0.3,0,0.4,0
						s0.1,0.1,0.1,0.2S19.3,15,19.1,15c-0.1,0-0.2,0-0.3-0.1c0,0-0.2,0-0.4,0c-0.2,0-0.4,0.1-0.4,0.2c0,0.2,0.5,0.2,0.2,0.3
						C17.7,15.6,17.7,15.9,17.8,16z M20,14.8c0.4-0.2,1.1-0.1,1.1,0c0,0,0.1,0.4-0.7,0.3C20.2,15,20,14.8,20,14.8z"/>
					<path class="st4" d="M12.4,18.2c0,0.2,0.5-0.3,0.4,0.2c-0.2,0.5,0.5,0.2,0.5,0.2c0.1,0,0.3-0.1,0.4-0.1c0.2,0,0.3,0.1,0.3,0.1
						c0,0.1,0,0.1-0.1,0.2s-0.5,0.1-0.5,0.2c0,0,0.1,0.1,0.1,0.2l-0.4,0.1c0,0.1,0.3,0.3,0.4,0.2c0.2-0.1,0.3-0.1,0.3-0.1
						s-0.1,0.2,0,0.3c0,0,0.5-0.3,0.5-0.4c0-0.2,0-0.4-0.1-0.5c0-0.1,0-0.1,0-0.1l0.4,0.1v0.1c-0.1,0.2-0.1,0.4,0,0.5
						c0.1,0.3,0.5,0.5,0.8,0.5c0.3,0.1-0.2,0.5-0.2,0.5c0-0.1,0-0.5-0.5-0.3c-0.2,0.1-0.3,0.2-0.3,0.4s0.2,0.4,0.6,0.3
						c0.5-0.1,1-0.7,0.8-1.1c-0.1-0.3-0.4-0.5-0.6-0.6c-0.2-0.2-0.4-0.3-0.4-0.3s0.5-0.4,0.5-0.2c0,0.1,0,0.2-0.1,0.3l0.1,0.1
						c0.1-0.1,0.2-0.3,0.1-0.4c-0.2-0.3-0.7,0.2-0.8,0.2l-0.3-0.1c0,0,0.4-0.4,0.3-0.7c-0.1-0.2-0.4-0.5-0.4-0.4c0,0,0,0.2-0.1,0.2
						H14c0-0.1-0.1-0.2-0.2-0.2c0,0-0.1-0.1-0.2,0c0,0.1,0,0.1,0,0.2l0.2,0.1V18c0,0-0.3,0-0.1,0.1c0,0,0.2,0.2,0.2,0.3
						c0,0.1,0,0.2-0.1,0.2s-0.2,0-0.3-0.2c-0.1-0.1-0.1-0.2-0.2-0.3c0,0-0.1-0.1-0.3-0.3c-0.1-0.1-0.3-0.2-0.4-0.1
						S12.9,18.2,12.4,18.2C12.6,17.8,12.4,18,12.4,18.2z M14.8,18.8c0.4,0.2,0.8,0.7,0.8,0.7s-0.2,0.3-0.7-0.2
						C14.8,19.2,14.8,18.8,14.8,18.8z"/>
				</g>
				<g>
					<g>
						<path class="st3" d="M9.7,10.5l-11.2-0.1c-0.1,3.6,1.4,7.3,4,9.9c2.5,2.6,6.2,4.2,9.8,4.2l0.2-11.1c-0.8,0-1.5-0.3-2-0.8
							C10,12,9.7,11.3,9.7,10.5z"/>
					</g>
					<path class="st4" d="M3.5,14.9c0.3,0.3-0.2,0.1-0.3,0.3c0,0.2,0.2,0.4,0.4,0.4C3.8,15.7,4,15.7,4,15.7c0.1,0,0.2,0,0.4,0
						c0.2,0,0.3,0.1,0.3,0.1c0.1,0.1,0,0.2-0.1,0.2c-0.1,0.1-0.4,0-0.4,0c-0.2-0.1,0.1,0.2,0.1,0.2H4.2c-0.1,0-0.2-0.1-0.3-0.2
						c-0.1,0-0.2,0-0.2,0.1s0.1,0.2,0.2,0.2c0.1,0,0.2,0,0.3,0s0.1,0,0.1,0v0.3c0,0.2,0.5,0.1,0.7,0c0.2-0.2,0-0.8,0.1-0.8l0.3,0.1
						c0,0,0.1,0.2,0.2,0.3c0.1,0.2,0.3,0.3,0.4,0.2c0.1-0.1,0.1-0.2,0.1-0.4H6c0,0.1,0,0.2,0,0.3c-0.1,0.1-0.4-0.5-0.4-0.5
						s0.2,0,0.5,0s0.6-0.1,0.8-0.3c0.4-0.4,0.3-0.9,0.1-1.2c-0.2-0.2-0.4-0.2-0.6-0.1c-0.1,0.1-0.2,0.3-0.1,0.4c0.2,0.3,0.5,0,0.5,0
						s0.2,0.5-0.2,0.5c-0.2,0-0.6-0.1-0.9,0c-0.2,0.1-0.3,0.2-0.3,0.4v0.1c0,0-0.4-0.1-0.4-0.2c0,0,0-0.1,0.1-0.1s0.3-0.2,0.4-0.3
						c0-0.1,0-0.2,0-0.4c0-0.1,0-0.3,0-0.3c-0.1-0.1-0.2,0.2-0.2,0.2s-0.1-0.1-0.1-0.3c-0.1-0.2-0.3-0.3-0.4-0.3l0.1,0.4H4.7
						c0,0,0.2,0.4,0.2,0.5s0,0.2-0.1,0.3c-0.1,0-0.2-0.1-0.3-0.2c-0.1-0.1-0.2-0.3-0.2-0.4c0,0-0.1-0.9-0.4-0.5s-0.2-0.3-0.4-0.3
						C3.3,14.2,3.2,14.6,3.5,14.9z M6,15.7c0.7-0.2,0.7,0.1,0.7,0.1S6.1,16.1,5.6,16C5.6,16,5.8,15.7,6,15.7z"/>
					<path class="st4" d="M9.2,20c0.4,0-0.1,0.2,0,0.4c0.1,0.2,0.4,0.1,0.6,0s0.4-0.2,0.4-0.2c0.1-0.1,0.2-0.2,0.3-0.2
						c0.1-0.1,0.2-0.2,0.3-0.1c0.1,0,0.2,0.1,0.1,0.2c0,0.1-0.3,0.3-0.3,0.3c-0.2,0.1,0.2,0.1,0.2,0.1v0.1l-0.3,0.1
						c-0.1,0-0.1,0.1,0,0.2s0.2,0,0.3,0s0.2-0.1,0.2-0.2s0.1-0.1,0.1,0c0.1,0,0.1,0.2,0.2,0.2c0.1,0.1,0.5-0.3,0.5-0.5
						c0-0.3-0.5-0.6-0.5-0.6l0.3-0.2c0,0,0.8,0.3,0.8,0c0-0.1-0.1-0.3-0.2-0.3l-0.1,0.1c0.1,0.1,0.2,0.1,0.2,0.2
						c0,0.2-0.6-0.1-0.6-0.1s0.2-0.1,0.3-0.3c0.2-0.2,0.3-0.5,0.3-0.8c0-0.5-0.5-0.9-0.7-0.9s-0.4,0.1-0.4,0.4
						c0,0.2,0.1,0.3,0.2,0.3c0.4,0.1,0.3-0.3,0.3-0.4c0,0,0.4,0.2,0.2,0.4c-0.2,0.1-0.5,0.3-0.6,0.6c-0.1,0.2-0.1,0.4,0,0.5
						c0,0,0,0,0,0.1l-0.4,0.2v-0.1c0.1-0.1,0.1-0.4,0-0.5c0-0.1-0.1-0.2-0.2-0.3c-0.1-0.1-0.2-0.2-0.2-0.2c-0.1,0,0,0.2,0,0.3
						c0,0-0.1,0-0.3-0.1s-0.5,0-0.5,0.1s0.4,0.2,0.4,0.2L10,19.1c0,0,0.4,0.1,0.5,0.2s0.2,0.1,0.1,0.2c0,0.1-0.2,0.1-0.4,0.1
						c-0.1,0-0.4-0.1-0.5-0.1c0,0-0.7-0.5-0.6,0s-0.4-0.1-0.5,0C8.6,19.7,8.8,19.9,9.2,20z M11.5,18.8c0.4-0.6,0.5-0.4,0.6-0.4
						c0,0-0.2,0.6-0.6,0.9C11.5,19.3,11.4,18.9,11.5,18.8z"/>
					<path class="st4" d="M7.1,15.9c-0.1,0.2,0.6,0.2,0.1,0.4s0.2,0.5,0.3,0.5c0.1,0,0.3,0.2,0.3,0.3c0.1,0.1,0.2,0.3,0.1,0.3
						c0,0.1-0.1,0.1-0.3,0.1c-0.1,0-0.5-0.3-0.5-0.3s0,0.2-0.1,0.2l-0.4-0.2c-0.1,0,0,0.4,0.2,0.5s0.3,0.2,0.3,0.2S6.9,18,6.9,18.1
						c0,0,0.5,0.2,0.7,0.1c0.1-0.1,0.3-0.3,0.3-0.4L8,17.7l0.2,0.4c0,0,0,0-0.1,0.1c-0.2,0-0.3,0.2-0.4,0.4c-0.1,0.3,0,0.7,0.2,0.9
						c0.1,0.3-0.5,0.2-0.5,0.2c0.1,0,0.3-0.3-0.1-0.6c-0.2-0.1-0.4-0.1-0.5,0c-0.1,0.2-0.1,0.4,0.2,0.6C7.4,20,8.2,20,8.4,19.5
						c0.1-0.3,0.1-0.6,0.1-0.9s-0.1-0.5-0.1-0.5s0.6,0.1,0.5,0.2c0,0.1-0.1,0.1-0.2,0.1v0.1c0.2,0,0.3,0,0.3-0.2
						c0.1-0.3-0.6-0.4-0.7-0.4l-0.1-0.3c0,0,0.1,0,0.3,0s0.3-0.1,0.4-0.2c0.1-0.2,0.1-0.6,0-0.6l-0.2,0.1c0,0,0,0,0-0.1s0-0.2,0-0.3
						c0-0.1-0.1-0.1-0.1-0.1c-0.1,0-0.1,0.1-0.1,0.2s0.1,0.2,0.1,0.3V17c0,0-0.2-0.2-0.2,0c0,0,0,0.3,0,0.4s-0.1,0.1-0.2,0.1
						s-0.1-0.1-0.1-0.3c0-0.1,0-0.2,0.1-0.3c0,0,0-0.2,0-0.4c0-0.2-0.1-0.4-0.2-0.4c-0.2,0-0.2,0.5-0.3,0.2
						C7.4,15.8,7.2,15.7,7.1,15.9z M8.3,18c0.2,0.4,0.1,1.1,0,1.1c0,0-0.4,0.1-0.3-0.7C8,18.3,8.3,18,8.3,18z"/>
					<path class="st4" d="M4.9,10.5c-0.2,0,0.3,0.5-0.2,0.4c-0.5-0.2-0.2,0.5-0.2,0.5c0,0.1,0.1,0.3,0.1,0.4c0,0.2-0.1,0.3-0.1,0.3
						c-0.1,0-0.1,0-0.2-0.1s-0.1-0.5-0.2-0.5c0,0-0.1,0.1-0.2,0.1l-0.1-0.4c-0.1,0-0.3,0.3-0.2,0.4c0.1,0.2,0.1,0.3,0.1,0.3
						s-0.2-0.1-0.3,0c0,0,0.3,0.5,0.4,0.5c0.2,0,0.4,0,0.5-0.1c0.1,0,0.1,0,0.1,0l-0.1,0.4H4.2c-0.2-0.1-0.4-0.1-0.5,0
						c-0.3,0.1-0.5,0.5-0.5,0.8c-0.1,0.3-0.5-0.2-0.5-0.2c0.1,0,0.5,0,0.3-0.5c-0.1-0.2-0.2-0.3-0.4-0.3s-0.4,0.2-0.3,0.6
						c0.1,0.5,0.7,1,1.1,0.8c0.3-0.1,0.5-0.4,0.6-0.6c0.2-0.2,0.3-0.4,0.3-0.4s0.4,0.5,0.2,0.5c-0.1,0-0.2,0-0.3-0.1l-0.1,0.1
						c0.1,0.1,0.3,0.2,0.4,0.1c0.3-0.2-0.2-0.7-0.2-0.8l0.1-0.3c0,0,0.4,0.4,0.7,0.3c0.2-0.1,0.5-0.4,0.4-0.4c0,0-0.2,0-0.2-0.1
						v-0.1c0.1,0,0.2-0.1,0.2-0.2c0,0,0.1-0.1,0-0.2c-0.1,0-0.1,0-0.2,0l-0.1,0.2H5.1c0,0,0-0.3-0.1-0.1c0,0-0.2,0.2-0.3,0.2
						c-0.1,0-0.2,0-0.2-0.1s0-0.2,0.2-0.3c0.1-0.1,0.2-0.1,0.3-0.2c0,0,0.1-0.1,0.3-0.3c0.1-0.1,0.2-0.3,0.1-0.4S4.9,11,4.9,10.5
						C5.2,10.7,5.1,10.5,4.9,10.5z M4.3,12.9c-0.3,0.4-0.8,0.8-0.8,0.8S3.2,13.5,3.7,13C3.9,12.8,4.2,12.9,4.3,12.9z"/>
				</g>
			</g>
		</g>
	</g>
</g>
</svg>
