<?xml version="1.0" encoding="utf-8"?>
<!-- Generator: Adobe Illustrator 22.0.2, SVG Export Plug-In . SVG Version: 6.00 Build 0)  -->
<svg version="1.1" id="Layer_1" xmlns="http://www.w3.org/2000/svg" xmlns:xlink="http://www.w3.org/1999/xlink" x="0px" y="0px"
	 viewBox="0 0 50 50" style="enable-background:new 0 0 50 50;" xml:space="preserve">
<style type="text/css">
	.st0{fill:#A47D43;}
	.st1{fill:#FFFFFF;}
	.st2{fill:#040000;}
	.st3{font-family:'MyriadPro-Regular';}
	.st4{font-size:19.5193px;}
</style>
<circle class="st0" cx="25" cy="25.5" r="2.9"/>
<rect x="23.6" y="28.4" class="st0" width="2.9" height="7.6"/>
<polygon class="st0" points="33.5,44.7 16.5,44.7 20.5,36 29.5,36 "/>
<ellipse transform="matrix(0.2678 -0.9635 0.9635 0.2678 -6.2617 42.7549)" class="st1" cx="25" cy="25.5" rx="1.1" ry="3.3"/>
<path class="st0" d="M25.2,22.6L25.2,22.6c-6.8,0-12.2-5.5-12.2-12.2v-5h24.1v5.4C37.1,17.3,31.7,22.6,25.2,22.6z"/>
<g>
	<g>
		<g>
			<g>
				<path class="st1" d="M24.9,18.5l0-1.4c0.1-0.3,0.3-0.6,0.4-0.8c0.4-0.5,0.4-0.6,0.4-0.9c0-0.2-0.1-0.4-0.3-0.4
					c-0.1,0-0.2,0.2-0.2,0.4c0,0.2,0.1,0.3,0.1,0.3c0,0,0.1,0,0.1,0c0.1,0,0.1,0.1,0.1,0.1c0,0.1,0,0.1-0.1,0.1
					c-0.1,0-0.3-0.2-0.3-0.5c0-0.3,0.1-0.6,0.3-0.6c0.3,0,0.4,0.5,0.4,0.6c0,0.2,0,0.4,0,0.5c0,0,0,0.1,0,0.1c0,0,0,0.1,0.1,0.1
					c0.1,0,0.8,0.1,1.2,1.1c0.1,0.3,0.1,0.9-0.5,1c-0.5,0.1-0.8-0.3-0.8-0.5c0-0.2,0.1-0.5,0.3-0.6c0.2,0,0.4,0.2,0.4,0.3
					c0,0.1,0,0.2,0,0.2c-0.1,0-0.1,0.1-0.1,0.1c0,0,0.1,0.2,0.2,0.1c0.4-0.1,0.3-0.6,0.3-0.7c-0.2-0.5-0.7-0.9-1.1-0.9
					c-0.5,0.1-0.8,0.8-0.8,1.5c0,0.8,0.4,1.1,0.5,1.1c0.1,0,0.1-0.3,0.2-0.3c0.1,0,0.3,0.1,0.3,0.3c0,0.4,0.4,0.5,0.6,0.5
					c0,0,0,0,0-0.1c0,0-0.1-0.3-0.1-0.3c-0.1-0.4,0.2-0.6,0.4-0.6c0,0,0.2,0,0.2,0c0,0-0.1,0.2-0.1,0.2c0,0,0,0,0.1,0
					c0,0,0.2-0.1,0.2-0.1c0.2-0.1,0.3,0,0.4,0.1c0,0.1,0,0.2-0.2,0.3c0,0-0.1,0-0.1,0c-0.2,0-0.3-0.1-0.4-0.1
					c-0.2,0-0.2,0.2-0.2,0.4c0,0.2,0.5,0.3,0.9,0.1c0.5-0.2,1.2-0.9,1.1-1.1c0,0,0-0.1-0.1-0.1c-0.1-0.1-0.7-0.8-0.8-0.8
					c-0.1,0,0,0.6,0,0.6c-0.1,0-0.2-0.2-0.3-0.5c-0.3-0.8-0.5-2.2-0.5-2.3c0,0,0-0.1,0-0.1c0,0-0.1-0.1-0.1-0.1c0,0-0.1,0.1-0.1,0.3
					c-0.1,0.1-0.1,0.3-0.1,0.4c0.1,0.3,0.1,0.3,0,0.3c0,0-0.1,0-0.1,0c-0.1-0.1-0.1-0.4-0.6-1.1c0,0,0-0.1,0-0.1c0-0.1,0-0.2,0-0.2
					c0,0,0.1,0,0.1,0.1c0.1,0.2,0.3,0.5,0.3,0.5c0,0-0.1-0.7-0.1-0.7c0,0,0.1,0,0.1,0.1c0.1,0.1,0.1,0.3,0.1,0.4c0,0,0,0.1,0.1,0.1
					c0,0,0.1-0.3,0.2-0.5c0.1-0.2,0.1-0.5,0.2-0.6c0.2-0.2,0.7,0,1.3,0.6c0.2,0.2,0.4,0.4,0.5,0.7c0.1,0.1,0.5,0.9,0.6,1
					c0,0.1,0.1,0.1,0.1,0c0,0,0.1-0.2,0.2-0.3l0,0l0,0c0.1-0.1,0.3-0.2,0.3-0.2c0,0,0-0.1,0-0.1c-0.1-0.1-0.9-0.5-1-0.6
					c-0.2-0.2-0.5-0.4-0.7-0.5c-0.6-0.6-0.8-1.1-0.6-1.4c0.1-0.1,0.3-0.1,0.6-0.2c0.3-0.1,0.5-0.2,0.5-0.2c0,0,0,0-0.1-0.1
					c-0.1,0-0.3-0.1-0.4-0.1c-0.1,0-0.1-0.1-0.1-0.1c0,0,0.6,0.1,0.6,0.1c0-0.1-0.5-0.4-0.5-0.4c0,0,0.4,0,0.5,0
					c0.1,0,0.2,0.2,0.2,0.3c0,0,0.2,0.1,0.2,0.1c0.1,0,0.2,0.1,0.2,0.1c0,0,0.1,0.1,0.1,0.2c0,0.1-0.1,0.1-0.2,0.1c0,0-0.1,0-0.1,0
					c-0.2,0-0.7,0.2-0.7,0.2c0,0,0,0.1,0.1,0.1c0,0,0.1,0,0.1,0c0.2,0,1.5,0.3,2.3,0.6c0.3,0.1,0.5,0.3,0.4,0.3c0,0.1-0.5,0-0.5,0.1
					c0,0,0,0,0.1,0.1c0.1,0.1,0.2,0.2,0.4,0.4c0.2,0.2,0.3,0.3,0.3,0.3c0.2,0.1,0.9-0.6,1.1-1.1c0.2-0.4,0.1-0.9-0.1-0.9
					c-0.2,0-0.4,0-0.5,0.1c0,0.1,0.1,0.2,0.1,0.4c0,0,0,0.1,0,0.1c0,0.1-0.1,0.2-0.3,0.1c-0.1,0-0.2-0.1-0.1-0.4
					c0,0,0.1-0.2,0.1-0.2c0,0,0-0.1,0-0.1c0,0-0.2,0.1-0.2,0.1c-0.1,0,0-0.1,0-0.2c0.1-0.3,0.4-0.4,0.7-0.4c0,0,0.3,0.1,0.3,0.1
					c0,0,0.1,0,0.1,0c0-0.1-0.1-0.4-0.1-0.4c0-0.1-0.2-0.1-0.3-0.1c-0.2,0-0.4-0.3-0.3-0.3c0,0,0-0.1,0.1,0c0,0,0.1,0,0.2,0
					c0,0,0.2,0,0.2-0.1c0-0.3-0.6-0.6-1.2-0.6c-0.8,0-1.5,0.3-1.6,0.8c-0.1,0.4,0.3,0.8,0.7,1c0.2,0.1,0.6,0.1,0.7-0.2
					c0-0.1,0-0.2-0.1-0.2c0,0-0.1,0-0.2,0c-0.1,0-0.2,0-0.3,0c-0.1,0-0.3-0.1-0.3-0.4c0-0.2,0.3-0.3,0.6-0.3c0.2,0,0.7,0.3,0.5,0.8
					c-0.1,0.5-0.7,0.5-1,0.4c-0.5-0.2-0.7-0.5-0.9-0.7c-0.1-0.2-0.1-0.4-0.1-0.4c0,0,0-0.1-0.1-0.1c0,0,0,0-0.1,0
					c-0.1,0-0.4,0-0.5,0c-0.1,0-0.7-0.2-0.6-0.5c0-0.2,0.2-0.3,0.6-0.3c0.3,0,0.5,0.2,0.5,0.3c0,0.1-0.1,0.1-0.2,0.1
					c0,0-0.1,0-0.1-0.1c0,0,0-0.1,0-0.1c0-0.1-0.1-0.1-0.3-0.1c-0.2,0-0.3,0.1-0.4,0.2c0,0.2,0.2,0.3,0.4,0.3c0.3,0,0.4,0.1,1-0.4
					c0.2-0.2,0.5-0.3,0.8-0.4h1.4c0.5,0.2,0.8,0.5,1,0.8c0,0,0.1,0.1,0.1,0.1c0,0,0.1,0,0.1-0.1c0,0,0-0.3,0-0.3
					c0-0.3,0-0.5,0.2-0.5c0,0,0.1,0.2,0.2,0.2c0,0,0.1,0,0.1-0.1l0.1-0.1h0.7c0.2,0.2,0.3,0.5,0.3,0.8c0,0.2-0.1,0.4-0.2,0.5
					c0,0-0.1,0.1-0.1,0.1c0,0,0,0.1,0,0.1c0.1,0.1,0.1,0.2,0.1,0.3c0,0.2-0.6,0.8-0.9,0.8c-0.1,0-0.1-0.1-0.1-0.2
					c0-0.1,0.1-0.2,0.2-0.2c0.1,0,0.4-0.2,0.4-0.4c0-0.1,0-0.1-0.3-0.2c0,0,0,0,0-0.1c0,0,0-0.1,0.2-0.3c0.1-0.1,0.4-0.3,0.4-0.5
					c0-0.3-0.1-0.5-0.3-0.5c-0.3,0-0.4,0.4-0.5,0.8c-0.1,0.4-0.2,0.9-0.2,1c0,0.2-0.1,0.9-0.2,1.1c0,0,0,0.1,0,0.1c0,0,0,0,0.1,0
					c0.1,0,0.3-0.2,0.5-0.1c0.2,0.1,0.5,0.5,0.2,1c-0.3,0.7-0.8,0.8-1.1,0.7c-0.2-0.1-0.2-0.3-0.1-0.6c0.1-0.3,0.3-0.3,0.4-0.3
					c0,0,0.1,0.1,0.1,0.1c0,0.1,0,0.1,0,0.2c0,0,0.1-0.1,0.2-0.3c0.1-0.2,0-0.3-0.1-0.4c-0.4-0.2-1.1,0.6-1.3,0.9
					c0,0.1-0.1,0.1,0,0.2c0.4,0.8,0.1,2.1-0.3,2.6l0,0l0,0c-0.3,0.3-1.7,0.7-2.6,0.3c-0.1,0-0.2,0-0.2,0c0,0-1,0.7-0.9,1.1
					c0.1,0.1,0.3,0.3,0.6,0.2c0.1-0.1,0.2-0.2,0.2-0.2c0,0-0.1,0-0.1,0c-0.1,0-0.1,0-0.1-0.1c0-0.1,0-0.2,0.2-0.3
					c0.3-0.2,0.5,0,0.6,0.2c0,0.1,0.2,0.4-0.6,0.8c-0.4,0.2-1,0-1.1-0.3c0-0.1,0-0.3,0-0.4c0,0,0-0.1,0-0.1c0,0,0,0-0.1,0
					c-0.5,0.2-0.5,0.2-0.8,0.2c-0.1,0-0.5,0-0.6,0c-0.1,0-0.4,0.1-0.5,0.1c-0.8,0.2-1,0.6-1,0.7c0,0.3,0.3,0.4,0.5,0.4
					c0.2,0,0.4-0.2,0.5-0.3c0.1-0.1,0.4-0.3,0.4-0.4c0.1,0,0.2,0.2,0.3,0.2c0.1,0,0.4-0.3,0.4-0.3c0.1-0.1,0.2-0.1,0.3-0.1
					c0.1,0,0.1,0,0.1,0c0.1,0.2-0.6,1-0.9,1.1c-0.1,0-0.3,0-0.3-0.1c0,0-0.1,0-0.1,0c0,0-0.1,0-0.1,0.1c-0.1,0.1-0.3,0.2-0.5,0.2
					c-0.3,0-0.6-0.1-0.8-0.3l0-0.7c0,0,0.1,0,0.1-0.1c0.1-0.1,0.2-0.1,0.2-0.2c0,0,0,0-0.1-0.1c0,0-0.1-0.1-0.1-0.1
					c0-0.1,0-0.1,0.1-0.1c0.1,0,0.7,0,0.7-0.1c0,0,0,0-0.1-0.1C25.5,19.3,25.1,19,24.9,18.5z M31.4,15.4c0.2-0.3-0.7-1.2-1.2-1.5
					c-0.7-0.3-1.5-0.6-1.5-0.5c0,0,0,0,0,0c0,0,0,0,0.1,0c0.1,0,0.5,0.1,1.1,0.5c0.7,0.4,0.6,0.7,0.5,0.8c-0.2,0.2-0.5,0.1-0.6,0
					c-0.2-0.1-0.2-0.4-0.2-0.4c0-0.1-0.1-0.2-0.2-0.3c-0.1-0.1-0.2-0.1-0.3-0.2c-0.5-0.3-0.8-0.3-0.8-0.2c-0.1,0.1,0.1,0.5,0.6,1
					c0.4,0.4,1,0.8,1.6,0.9C30.8,15.6,31.2,15.6,31.4,15.4z M29.8,16.8C29.8,16.8,29.7,16.8,29.8,16.8c-0.2,0.1-0.3,0.7-0.1,1
					c0.2,0.3,1,0.2,1.7-0.2l0,0c0.2-0.2,0.3-0.6,0.4-1c0-0.3,0-0.6-0.2-0.7c-0.3-0.2-0.9,0-1,0c0,0,0,0.1,0,0.1c0,0.2,0,0.4-0.2,0.5
					l0,0l0,0C30.2,16.7,30,16.8,29.8,16.8z M29.2,17.5c0.2-0.1,0.2-0.6,0.1-1.1c-0.1-0.5-0.4-1.2-0.9-1.6c-0.5-0.6-0.9-0.6-1-0.6
					c-0.2,0.1,0.1,0.7,0.2,0.9c0.1,0.1,0.1,0.2,0.2,0.3c0.1,0.1,0.3,0.2,0.4,0.2c0.2,0,0.4,0.2,0.4,0.2c0.1,0.2,0,0.5-0.1,0.6
					c-0.3,0.2-0.6-0.2-0.8-0.6c-0.3-0.6-0.4-1-0.5-1.1c0,0,0-0.1,0-0.1c0,0,0,0,0,0c-0.1,0.1,0.1,0.9,0.5,1.5
					C28,16.8,28.9,17.7,29.2,17.5z"/>
			</g>
			<g>
				<path class="st1" d="M17.6,11H19c0.4,0.1,0.6,0.3,0.8,0.4c0.6,0.4,0.6,0.4,1,0.4c0.2,0,0.4-0.1,0.4-0.3c0-0.1-0.2-0.2-0.4-0.2
					c-0.2,0-0.3,0.1-0.3,0.1c0,0,0,0.1,0,0.1c0,0.1-0.1,0.1-0.1,0.1c-0.1,0-0.1,0-0.2-0.1c0-0.1,0.2-0.3,0.5-0.3
					c0.3,0,0.6,0.1,0.6,0.3c0,0.3-0.5,0.4-0.6,0.5c-0.2,0-0.4,0-0.5,0c0,0-0.1,0-0.1,0c0,0-0.1,0-0.1,0.1c0,0.1-0.1,0.8-1.1,1.2
					c-0.3,0.1-0.9,0.1-1-0.4c-0.1-0.5,0.3-0.8,0.5-0.8c0.2,0,0.5,0.1,0.6,0.3c0.1,0.2-0.2,0.4-0.3,0.4c-0.1,0-0.2,0-0.2,0
					c0-0.1-0.1-0.1-0.1-0.1c0,0-0.2,0.1-0.1,0.2c0.1,0.4,0.6,0.3,0.7,0.2c0.4-0.2,0.9-0.7,0.8-1.1c-0.1-0.5-0.8-0.8-1.6-0.8
					c-0.8,0-1.1,0.4-1.1,0.5c0,0.1,0.3,0.1,0.3,0.2c0,0.1-0.1,0.3-0.3,0.3c-0.4,0.1-0.5,0.4-0.5,0.6c0,0,0,0,0.1,0
					c0,0,0.3-0.1,0.3-0.1c0.4-0.1,0.6,0.2,0.6,0.4c0,0,0,0.2,0,0.2c0,0-0.2-0.1-0.2-0.1c0,0,0,0,0,0.1c0,0,0.1,0.2,0.1,0.2
					c0.1,0.2,0,0.3-0.1,0.4c-0.1,0-0.2,0-0.3-0.2c0,0,0-0.1,0-0.1c0-0.2,0.1-0.3,0.1-0.4c0-0.2-0.2-0.2-0.4-0.2
					c-0.2,0-0.3,0.5-0.1,0.9c0.2,0.5,0.9,1.2,1.1,1.1c0,0,0,0,0.1-0.1c0.1-0.1,0.8-0.7,0.8-0.8c0-0.1-0.6,0-0.6,0
					c0-0.1,0.2-0.2,0.4-0.3c0.8-0.3,2.1-0.5,2.3-0.6c0,0,0.1,0,0.1,0c0,0,0.1-0.1,0.1-0.1c0,0-0.5-0.3-0.7-0.3
					c-0.3,0.1-0.3,0.1-0.3,0c0,0,0-0.1,0-0.1c0.1-0.1,0.4-0.1,1.1-0.6c0,0,0.1,0,0.1,0c0.1,0,0.2,0,0.2,0c0,0,0,0.1-0.1,0.1
					c-0.2,0.1-0.5,0.3-0.5,0.3c0,0,0.7-0.1,0.7-0.1c0,0,0,0.1-0.1,0.1c-0.1,0.1-0.3,0.1-0.4,0.1c0,0-0.1,0-0.1,0.1
					c0,0,0.3,0.1,0.5,0.2c0.3,0.1,0.5,0.1,0.6,0.2c0.2,0.3,0,0.7-0.6,1.3c-0.2,0.2-0.4,0.4-0.7,0.5c-0.1,0.1-0.9,0.5-1,0.6
					c-0.1,0-0.1,0.1,0,0.1c0,0,0.2,0.1,0.3,0.2l0,0l0,0c0.1,0.1,0.2,0.3,0.2,0.3c0,0,0.1,0,0.1,0c0.1-0.1,0.5-0.9,0.6-1
					c0.2-0.2,0.4-0.5,0.5-0.7c0.6-0.6,1.1-0.8,1.4-0.6c0.2,0.1,0.1,0.4,0.2,0.6c0.1,0.3,0.2,0.5,0.2,0.5c0,0,0,0,0.1-0.1
					c0-0.1,0.1-0.3,0.1-0.4c0-0.1,0.1-0.1,0.1-0.1c0,0-0.1,0.6-0.1,0.6c0.1,0,0.4-0.5,0.4-0.5c0,0,0,0.4,0,0.5
					c0,0.1-0.2,0.2-0.3,0.2c0,0-0.1,0.2-0.1,0.2c0,0.1-0.1,0.2-0.1,0.2c0,0-0.1,0.1-0.2,0.1c-0.1,0-0.1-0.1-0.1-0.2c0,0,0-0.1,0-0.1
					c0.1-0.2-0.2-0.7-0.2-0.7c0,0-0.1,0-0.1,0.1c0,0,0,0.1,0,0.1c-0.1,0.2-0.3,1.5-0.6,2.3c-0.1,0.3-0.3,0.5-0.3,0.4
					c-0.1,0,0-0.5-0.1-0.5c0,0,0,0-0.1,0.1c-0.1,0.1-0.7,0.7-0.7,0.7c-0.1,0.2,0.6,0.9,1.1,1.1c0.4,0.2,0.9,0.1,0.9-0.1
					c0-0.2,0-0.4-0.1-0.5c-0.1,0-0.2,0.1-0.4,0.1c0,0-0.1,0-0.1,0c-0.1,0-0.2-0.1-0.1-0.3c0-0.1,0.1-0.2,0.4-0.1
					c0,0,0.2,0.1,0.2,0.1c0,0,0.1,0,0.1,0c0,0-0.1-0.2-0.1-0.2c0-0.1,0.1,0,0.2,0c0.3,0.1,0.4,0.4,0.4,0.7c0,0-0.1,0.3-0.1,0.3
					c0,0,0,0.1,0,0.1c0.1,0,0.4,0,0.4-0.1c0.1,0,0.1-0.2,0.1-0.3c0-0.2,0.3-0.4,0.3-0.3c0,0,0.1,0,0,0.1c0,0,0,0.1-0.1,0.2
					c0,0,0,0.2,0.1,0.3c0.3,0,0.6-0.6,0.6-1.2c0-0.8-0.3-1.5-0.8-1.6c-0.4-0.1-0.9,0.3-1,0.7c-0.1,0.1-0.2,0.6,0.2,0.7
					c0.1,0,0.2,0,0.2-0.1c0,0,0-0.1,0-0.2c0-0.1,0-0.2,0-0.3c0-0.1,0.1-0.3,0.4-0.3c0.2,0.1,0.3,0.3,0.3,0.6c0,0.2-0.3,0.6-0.8,0.5
					c-0.5-0.1-0.5-0.7-0.4-1c0.2-0.5,0.5-0.7,0.7-0.8C23.8,15.9,24,16,24,16c0,0,0.1,0,0.1-0.1c0,0,0,0,0-0.1c0-0.1,0-0.4,0-0.5
					c0-0.1,0.2-0.6,0.5-0.6c0.2,0,0.3,0.2,0.3,0.6c0,0.3-0.2,0.5-0.3,0.5c-0.1,0-0.1-0.1-0.1-0.2c0,0,0-0.1,0.1-0.1c0,0,0.1,0,0.1,0
					c0,0,0.1-0.1,0.1-0.3c0-0.2-0.1-0.3-0.2-0.4c-0.2,0-0.3,0.2-0.3,0.4c-0.1,0.3-0.1,0.4,0.3,1c0.2,0.2,0.3,0.5,0.4,0.8l0,1.4
					c-0.2,0.5-0.6,0.8-0.8,1c0,0-0.1,0.1-0.1,0.1c0,0,0,0.1,0.1,0.1c0,0,0.3,0,0.3,0c0.3,0,0.5,0,0.5,0.2c0,0-0.2,0.1-0.2,0.2
					c0,0,0,0.1,0.1,0.1l0.1,0.1l0,0.7c-0.2,0.2-0.5,0.3-0.8,0.3c-0.2,0-0.4-0.1-0.5-0.2c0,0-0.1-0.1-0.1-0.1c0,0-0.1,0-0.1,0
					C23.3,21,23.2,21,23.1,21c-0.2,0-0.8-0.7-0.7-0.9c0-0.1,0.1-0.1,0.2-0.1c0.1,0,0.1,0.1,0.2,0.2c0,0.1,0.2,0.3,0.3,0.4
					c0.1,0,0.1,0,0.2-0.3c0,0,0,0,0.1,0c0,0,0.1,0,0.3,0.2c0.1,0.1,0.3,0.4,0.5,0.4c0.3,0,0.5-0.1,0.5-0.3c0-0.5-1.6-0.7-1.8-0.8
					c-0.2,0-0.9-0.1-1.1-0.2c0,0-0.1,0-0.1,0c0,0,0,0,0,0.1c0,0.1,0.2,0.3,0.1,0.5c-0.1,0.2-0.5,0.5-1,0.2c-0.7-0.3-0.8-0.8-0.6-1.1
					c0.1-0.2,0.3-0.2,0.6-0.1c0.3,0.1,0.3,0.3,0.3,0.4c0,0-0.1,0.1-0.1,0.1c-0.1,0-0.1,0-0.2,0c0,0,0.1,0.1,0.3,0.2
					c0.2,0.1,0.3,0,0.4-0.1c0.2-0.4-0.6-1.1-0.9-1.3c-0.1,0-0.1-0.1-0.2,0c-0.8,0.3-2.1,0.1-2.6-0.3l0,0l0,0
					c-0.3-0.3-0.7-1.7-0.3-2.6c0-0.1,0-0.2,0-0.2c0,0-0.7-1-1.2-0.9c-0.2,0.1-0.3,0.3-0.1,0.6c0.1,0.1,0.2,0.2,0.2,0.2
					c0,0,0-0.1,0-0.1c0-0.1,0-0.1,0.1-0.1c0.1,0,0.2,0,0.3,0.2c0.1,0.3,0,0.5-0.2,0.6c0,0-0.4,0.3-0.8-0.6c-0.2-0.4,0-0.9,0.3-1
					c0.1,0,0.3,0,0.4,0c0,0,0.1,0,0.1,0c0,0,0,0,0-0.1c-0.2-0.5-0.2-0.5-0.2-0.8c0-0.1,0-0.5,0-0.6c0-0.1-0.1-0.4-0.1-0.5
					c-0.2-0.7-0.6-1-0.7-1c-0.2,0-0.4,0.3-0.3,0.6c0,0.2,0.2,0.4,0.3,0.5c0.1,0.1,0.3,0.4,0.4,0.4c0,0.1-0.2,0.2-0.2,0.3
					c0,0.1,0.3,0.3,0.3,0.4c0.1,0.1,0.1,0.2,0.1,0.3c0,0,0,0.1,0,0.1c-0.2,0.1-1.1-0.6-1.1-0.9c0-0.1,0-0.3,0.1-0.3c0,0,0-0.1,0-0.1
					c0,0,0-0.1-0.1-0.1c-0.1-0.1-0.2-0.3-0.2-0.5c0-0.3,0.1-0.6,0.3-0.8h0.7c0,0,0,0.1,0.1,0.1c0.1,0.1,0.1,0.1,0.2,0.1
					c0,0,0,0,0-0.1c0,0,0-0.1,0.1-0.1c0.1,0,0.1,0,0.1,0.1c0,0.1,0,0.7,0.1,0.7c0,0,0,0,0.1-0.1C16.8,11.5,17.1,11.1,17.6,11z
					 M20.7,17.4c0.3,0.2,1.2-0.7,1.5-1.2c0.4-0.7,0.6-1.5,0.5-1.5c0,0,0,0,0,0c0,0,0,0,0,0.1c0,0.1-0.1,0.5-0.5,1.1
					c-0.4,0.7-0.7,0.6-0.8,0.5c-0.2-0.2-0.1-0.5,0-0.6c0.1-0.2,0.4-0.2,0.4-0.2c0.1,0,0.2-0.1,0.3-0.2c0.1-0.1,0.1-0.2,0.2-0.3
					c0.3-0.5,0.3-0.8,0.2-0.8c-0.1-0.1-0.5,0.1-1,0.6c-0.4,0.4-0.8,1-0.9,1.6C20.5,16.8,20.6,17.3,20.7,17.4z M19.4,15.8
					C19.4,15.8,19.4,15.8,19.4,15.8c-0.1-0.2-0.7-0.3-1-0.1c-0.3,0.2-0.2,1,0.2,1.7l0,0c0.2,0.2,0.6,0.3,1,0.4c0.3,0,0.6,0,0.7-0.1
					c0.2-0.3,0-0.9,0-1c0,0-0.1,0-0.1,0c-0.2,0-0.4,0-0.5-0.2l0,0l0,0C19.4,16.2,19.4,16,19.4,15.8z M18.6,15.2
					c0.1,0.2,0.6,0.2,1.1,0.1c0.5-0.1,1.2-0.4,1.6-0.9c0.6-0.5,0.6-0.9,0.6-1c-0.1-0.2-0.7,0.1-0.9,0.2c-0.1,0.1-0.2,0.1-0.3,0.2
					c-0.1,0.1-0.2,0.3-0.2,0.4c0,0.2-0.2,0.4-0.2,0.4c-0.2,0.1-0.5,0-0.6-0.1c-0.2-0.3,0.2-0.6,0.5-0.8c0.6-0.3,1-0.4,1.1-0.5
					c0,0,0.1,0,0.1,0c0,0,0,0,0,0c-0.1-0.1-0.9,0.1-1.5,0.5C19.3,14,18.4,14.9,18.6,15.2z"/>
			</g>
		</g>
	</g>
</g>
<text transform="matrix(1 0 0 1 19.9939 16.5879)" class="st2 st3 st4">3</text>
</svg>
